# File created by Blade
# Date/Time:  Tue Jan 27 19:00:46 2015
#---------------------------------------------------------
:version 1.10
:name HOM
:units
  mass 1.0
  length 1.000000
  angle deg
:documentation
     Acclaim Skeleton File
:root
   axis xyz
   order TX TY TZ RX RY RZ
   position 0.000000 0.000000 0.000000
   orientation 0 0 0
:bonedata
   begin
      id 1
      name Spine_dum
      direction 0.000000 1.000000 0.000000
      length 5.195262
      axis 0.0 0.0 0.0 xyz
   end
   begin
      id 2
      name LeftUpLeg_dum
      direction 1.000000 0.000000 0.000000
      length 3.351363
      axis 0.0 0.0 0.0 xyz
   end
   begin
      id 3
      name RightUpLeg_dum
      direction -1.000000 0.000000 0.000000
      length 3.351363
      axis 0.0 0.0 0.0 xyz
   end
   begin
      id 4
      name Spine
      direction 0.000000 1.000000 0.000000
      length 0.000000
      axis 0.0 0.0 0.0 xyz
      dof rx ry rz
   end
   begin
      id 5
      name Spine_dum1
      direction 0.000000 1.000000 0.000000
      length 15.653875
      axis 0.0 0.0 0.0 xyz
   end
   begin
      id 6
      name Spine_dum2
      direction 0.000000 1.000000 0.000000
      length 10.329768
      axis 0.0 0.0 0.0 xyz
   end
   begin
      id 7
      name Spine_dum3
      direction 0.000000 1.000000 0.000000
      length 10.329768
      axis 0.0 0.0 0.0 xyz
   end
   begin
      id 8
      name Head
      direction 0.000000 1.000000 0.000000
      length 4.527550
      axis 0.0 0.0 0.0 xyz
      dof rx ry rz
   end
   begin
      id 9
      name LeftShoulder
      direction 1.000000 0.000000 0.000000
      length 6.996006
      axis 0.0 0.0 -90.0 xyz
      dof rx ry rz
   end
   begin
      id 10
      name LeftArm
      direction 1.000000 0.000000 0.000000
      length 10.209302
      axis 0.0 0.0 -90.0 xyz
      dof rx ry rz
   end
   begin
      id 11
      name LeftForeArm
      direction 1.000000 0.000000 0.000000
      length 8.563163
      axis 0.0 0.0 -90.0 xyz
      dof ry rz rx
   end
   begin
      id 12
      name LeftHand
      direction 0.000000 0.000000 0.000000
      length 0.000000
      axis 0.0 0.0 -90.0 xyz
      dof rx ry rz
   end
   begin
      id 13
      name LeftHand_dum1
      direction 0.000000 0.000000 0.000000
      length 0.000000
      axis 0.0 0.0 -90.0 xyz
   end
   begin
      id 14
      name LeftHand_dum2
      direction 1.000000 0.000000 0.000000
      length 3.937000
      axis 0.0 0.0 -90.0 xyz
   end
   begin
      id 15
      name LeftHandThumb1
      direction 0.000000 0.000000 1.000000
      length 3.937000
      axis 0.0 0.0 -90.0 xyz
      dof rx rz ry
   end
   begin
      id 16
      name RightShoulder
      direction -1.000000 0.000000 0.000000
      length 6.996006
      axis 0.0 0.0 90.0 xyz
      dof rx ry rz
   end
   begin
      id 17
      name RightArm
      direction -1.000000 0.000000 0.000000
      length 10.209302
      axis 0.0 0.0 90.0 xyz
      dof rx ry rz
   end
   begin
      id 18
      name RightForeArm
      direction -1.000000 0.000000 0.000000
      length 8.563163
      axis 0.0 0.0 90.0 xyz
      dof ry rz rx
   end
   begin
      id 19
      name RightHand
      direction 0.000000 0.000000 0.000000
      length 0.000000
      axis 0.0 0.0 90.0 xyz
      dof rx ry rz
   end
   begin
      id 20
      name RightHand_dum1
      direction 0.000000 0.000000 0.000000
      length 0.000000
      axis 0.0 0.0 90.0 xyz
   end
   begin
      id 21
      name RightHand_dum2
      direction -1.000000 0.000000 0.000000
      length 3.937000
      axis 0.0 0.0 90.0 xyz
   end
   begin
      id 22
      name RightHandThumb1
      direction 0.000000 0.000000 1.000000
      length 3.937000
      axis 0.0 0.0 90.0 xyz
      dof rx rz ry
   end
   begin
      id 23
      name LeftUpLeg
      direction 0.000000 -1.000000 0.000000
      length 16.346831
      axis 0.0 0.0 0.0 xyz
      dof rx ry rz
   end
   begin
      id 24
      name LeftLeg
      direction 0.000000 -1.000000 0.000000
      length 13.959795
      axis 0.0 0.0 0.0 xyz
      dof rx ry rz
   end
   begin
      id 25
      name LeftFoot
      direction 0.000000 -0.258819 0.965926
      length 5.165550
      axis 15.0 0.0 0.0 xyz
      dof rx ry rz
   end
   begin
      id 26
      name LeftToeBase
      direction 0.000000 0.000000 1.000000
      length 2.952750
      axis 0.0 0.0 0.0 xyz
      dof rx ry rz
   end
   begin
      id 27
      name RightUpLeg
      direction 0.000000 -1.000000 0.000000
      length 16.346831
      axis 0.0 0.0 0.0 xyz
      dof rx ry rz
   end
   begin
      id 28
      name RightLeg
      direction 0.000000 -1.000000 0.000000
      length 13.959795
      axis 0.0 0.0 0.0 xyz
      dof rx ry rz
   end
   begin
      id 29
      name RightFoot
      direction 0.000000 -0.258819 0.965926
      length 5.165550
      axis 15.0 0.0 0.0 xyz
      dof rx ry rz
   end
   begin
      id 30
      name RightToeBase
      direction 0.000000 0.000000 1.000000
      length 2.952750
      axis 0.0 0.0 0.0 xyz
      dof rx ry rz
   end
:hierarchy
   begin
      root Spine_dum LeftUpLeg_dum RightUpLeg_dum
      Spine_dum Spine
      LeftUpLeg_dum LeftUpLeg
      RightUpLeg_dum RightUpLeg
      Spine Spine_dum1 Spine_dum2 Spine_dum3
      Spine_dum1 Head
      Spine_dum2 LeftShoulder
      Spine_dum3 RightShoulder
      LeftShoulder LeftArm
      LeftArm LeftForeArm
      LeftForeArm LeftHand
      LeftHand LeftHand_dum1 LeftHand_dum2
      LeftHand_dum1 LeftHandThumb1
      RightShoulder RightArm
      RightArm RightForeArm
      RightForeArm RightHand
      RightHand RightHand_dum1 RightHand_dum2
      RightHand_dum1 RightHandThumb1
      LeftUpLeg LeftLeg
      LeftLeg LeftFoot
      LeftFoot LeftToeBase
      RightUpLeg RightLeg
      RightLeg RightFoot
      RightFoot RightToeBase
   end

# File created by Blade
# Date/Time:  Tue Jan 27 19:00:36 2015
# Frame Rate: 120.000 fps
#------------------------------------------------------
:FULLY-SPECIFIED
:DEGREES
667
root -2.570327 31.710073 -4.170078 5.626007 35.946333 0.304052
Spine -4.823518 -10.035293 -2.772139
Head 24.348599 4.499108 4.736046
LeftShoulder -16.827977 12.509011 14.461667
LeftArm 24.234074 -30.155153 -75.344903
LeftForeArm -10.675817 0.000000 70.382762
LeftHand -7.738116 -0.000000 23.350918
LeftHandThumb1 -26.253704 0.000000 33.147579
RightShoulder -13.248689 -4.244695 -11.674452
RightArm 3.817513 -30.703389 89.250053
RightForeArm -23.809946 -0.000000 22.171103
RightHand -15.095156 -0.000000 10.011496
RightHandThumb1 -24.326973 -0.000000 -32.862282
LeftUpLeg -7.092185 -22.553627 -5.418912
LeftLeg 17.067373 -0.000000 -0.000000
LeftFoot -22.033751 16.749467 -13.002307
LeftToeBase 9.497248 -0.000000 -0.000000
RightUpLeg -27.514569 16.014621 -4.930708
RightLeg 24.396634 -0.000000 -0.000000
RightFoot -21.516807 -20.482369 3.235986
RightToeBase -6.102537 -0.000000 0.000000
668
root -2.572179 31.706872 -4.169742 5.620708 35.836429 0.304162
Spine -4.830661 -9.998281 -2.837418
Head 24.406634 4.555299 4.824154
LeftShoulder -16.839653 12.423725 14.539968
LeftArm 24.177116 -30.262317 -75.325118
LeftForeArm -10.654415 -0.000000 70.232152
LeftHand -7.665825 0.000000 23.390367
LeftHandThumb1 -26.253704 0.000000 33.147579
RightShoulder -13.263558 -4.274647 -11.645927
RightArm 3.804514 -30.730502 89.309264
RightForeArm -23.769197 -0.000000 22.138934
RightHand -15.028766 -0.000000 9.957895
RightHandThumb1 -24.326973 -0.000000 -32.862282
LeftUpLeg -7.124646 -22.433601 -5.423456
LeftLeg 17.137335 -0.000000 -0.000000
LeftFoot -22.087407 16.817286 -12.835567
LeftToeBase 9.685990 -0.000000 -0.000000
RightUpLeg -27.172397 15.417559 -4.586188
RightLeg 21.592191 -0.000000 -0.000000
RightFoot -21.029431 -19.632546 2.902257
RightToeBase -6.444819 -0.000000 0.000000
669
root -2.575823 31.703894 -4.171380 5.622954 35.733526 0.287636
Spine -4.841573 -9.963859 -2.883248
Head 24.439325 4.638132 4.910410
LeftShoulder -16.858419 12.359182 14.594954
LeftArm 24.159621 -30.404405 -75.341541
LeftForeArm -10.695383 -0.000000 70.131683
LeftHand -7.663428 0.000000 23.451311
LeftHandThumb1 -26.253704 0.000000 33.147579
RightShoulder -13.295446 -4.315124 -11.600759
RightArm 3.798890 -30.768791 89.343007
RightForeArm -23.822140 -0.000000 22.163945
RightHand -15.180921 -0.000000 9.776005
RightHandThumb1 -24.326973 -0.000000 -32.862282
LeftUpLeg -7.179428 -22.346078 -5.408191
LeftLeg 17.204558 -0.000000 -0.000000
LeftFoot -22.124997 16.825035 -12.889513
LeftToeBase 9.573852 -0.000000 -0.000000
RightUpLeg -26.900070 14.776787 -4.201600
RightLeg 18.976682 -0.000000 -0.000000
RightFoot -20.466674 -18.642787 2.678028
RightToeBase -6.750625 -0.000000 0.000000
670
root -2.581379 31.701126 -4.171457 5.596605 35.636524 0.248331
Spine -4.833463 -9.923905 -2.913937
Head 24.468770 4.717421 4.977429
LeftShoulder -16.866853 12.325886 14.636079
LeftArm 24.170681 -30.531070 -75.356142
LeftForeArm -10.720031 -0.000000 70.055501
LeftHand -7.707419 -0.000000 23.513963
LeftHandThumb1 -26.253704 0.000000 33.147579
RightShoulder -13.310140 -4.329816 -11.556714
RightArm 3.736808 -30.765397 89.396452
RightForeArm -23.848966 -0.000000 22.206549
RightHand -15.035286 -0.000000 10.073017
RightHandThumb1 -24.326973 -0.000000 -32.862282
LeftUpLeg -7.206951 -22.304553 -5.385405
LeftLeg 17.267679 -0.000000 -0.000000
LeftFoot -22.152093 16.864217 -13.011859
LeftToeBase 9.126411 -0.000000 -0.000000
RightUpLeg -26.648264 14.040930 -3.726152
RightLeg 16.562343 -0.000000 -0.000000
RightFoot -19.936732 -17.673006 2.414067
RightToeBase -6.755373 -0.000000 0.000000
671
root -2.588674 31.697582 -4.173089 5.583017 35.539146 0.205410
Spine -4.833853 -9.888300 -2.927745
Head 24.499213 4.824517 4.982958
LeftShoulder -16.895317 12.341042 14.634720
LeftArm 24.234899 -30.613532 -75.336946
LeftForeArm -10.754555 -0.000000 69.966689
LeftHand -7.653685 0.000000 23.671523
LeftHandThumb1 -26.253704 0.000000 33.147579
RightShoulder -13.307881 -4.318078 -11.524333
RightArm 3.666448 -30.752398 89.477459
RightForeArm -23.857133 -0.000000 22.197545
RightHand -14.976637 0.000000 10.043277
RightHandThumb1 -24.326973 -0.000000 -32.862282
LeftUpLeg -7.243894 -22.302095 -5.351636
LeftLeg 17.299938 -0.000000 -0.000000
LeftFoot -22.225962 17.064261 -12.847287
LeftToeBase 9.351472 -0.000000 -0.000000
RightUpLeg -26.457965 13.291752 -3.220651
RightLeg 14.329248 -0.000000 -0.000000
RightFoot -19.471184 -16.647762 2.415404
RightToeBase -6.755680 -0.000000 0.000000
672
root -2.597440 31.694190 -4.175108 5.552439 35.448334 0.140705
Spine -4.820371 -9.851303 -2.922070
Head 24.491742 4.898151 5.011899
LeftShoulder -16.919565 12.396656 14.592875
LeftArm 24.360723 -30.749545 -75.354471
LeftForeArm -10.775603 -0.000000 69.927992
LeftHand -7.625367 -0.000000 23.700296
LeftHandThumb1 -26.253704 0.000000 33.147579
RightShoulder -13.297299 -4.321325 -11.490257
RightArm 3.579848 -30.622230 89.579713
RightForeArm -24.044009 -0.000000 22.234541
RightHand -14.934970 0.000000 10.053647
RightHandThumb1 -24.326973 -0.000000 -32.862282
LeftUpLeg -7.274204 -22.319457 -5.297643
LeftLeg 17.332232 -0.000000 -0.000000
LeftFoot -22.330875 17.187890 -12.900405
LeftToeBase 9.516107 -0.000000 -0.000000
RightUpLeg -26.313767 12.533412 -2.687382
RightLeg 12.331220 -0.000000 -0.000000
RightFoot -18.988502 -15.622931 2.424902
RightToeBase -7.057282 -0.000000 0.000000
673
root -2.607360 31.690787 -4.177953 5.526987 35.359335 0.072842
Spine -4.806802 -9.822752 -2.906169
Head 24.491482 5.006368 4.980683
LeftShoulder -16.950421 12.400862 14.550730
LeftArm 24.432712 -30.877167 -75.342948
LeftForeArm -10.729781 -0.000000 69.914194
LeftHand -7.706063 -0.000000 23.691842
LeftHandThumb1 -26.253704 0.000000 33.147579
RightShoulder -13.287362 -4.310191 -11.454126
RightArm 3.521006 -30.616421 89.639108
RightForeArm -24.050113 -0.000000 22.259857
RightHand -14.983170 -0.000000 10.116280
RightHandThumb1 -24.326973 -0.000000 -32.862282
LeftUpLeg -7.318432 -22.341162 -5.233329
LeftLeg 17.370666 -0.000000 -0.000000
LeftFoot -22.396235 17.301114 -12.911221
LeftToeBase 9.441060 -0.000000 -0.000000
RightUpLeg -26.231414 11.757981 -2.127542
RightLeg 10.535428 -0.000000 -0.000000
RightFoot -18.601623 -14.633052 2.410957
RightToeBase -7.088484 -0.000000 0.000000
674
root -2.617054 31.686790 -4.183670 5.523439 35.277802 0.027787
Spine -4.784097 -9.801334 -2.908912
Head 24.448102 5.124794 4.948515
LeftShoulder -16.987586 12.367877 14.513032
LeftArm 24.467529 -30.961215 -75.286387
LeftForeArm -10.742397 -0.000000 69.911160
LeftHand -7.718284 -0.000000 23.795951
LeftHandThumb1 -26.253704 0.000000 33.147579
RightShoulder -13.281662 -4.287555 -11.406536
RightArm 3.469346 -30.666386 89.680351
RightForeArm -24.015760 -0.000000 22.284031
RightHand -14.886052 0.000000 10.485572
RightHandThumb1 -24.326973 -0.000000 -32.862282
LeftUpLeg -7.372420 -22.351761 -5.184547
LeftLeg 17.402441 -0.000000 -0.000000
LeftFoot -22.437771 17.346236 -13.038127
LeftToeBase 9.173800 -0.000000 -0.000000
RightUpLeg -26.222606 11.080261 -1.643883
RightLeg 8.988412 -0.000000 -0.000000
RightFoot -18.290121 -13.690652 2.392166
RightToeBase -7.081225 -0.000000 0.000000
675
root -2.627423 31.683032 -4.189572 5.526894 35.195198 -0.011584
Spine -4.774461 -9.779036 -2.911691
Head 24.431858 5.270755 4.909011
LeftShoulder -17.015443 12.335488 14.469562
LeftArm 24.482679 -31.050331 -75.213852
LeftForeArm -10.753248 -0.000000 69.931827
LeftHand -7.781980 -0.000000 23.783247
LeftHandThumb1 -26.253704 0.000000 33.147579
RightShoulder -13.269161 -4.299990 -11.364357
RightArm 3.434658 -30.657196 89.729222
RightForeArm -23.957850 -0.000000 22.293089
RightHand -14.999960 0.000000 10.044313
RightHandThumb1 -24.326973 -0.000000 -32.862282
LeftUpLeg -7.427852 -22.344343 -5.129529
LeftLeg 17.423072 -0.000000 -0.000000
LeftFoot -22.534330 17.443764 -12.926452
LeftToeBase 9.462555 -0.000000 -0.000000
RightUpLeg -26.271450 10.493762 -1.196501
RightLeg 7.654433 -0.000000 -0.000000
RightFoot -17.954249 -12.906842 2.184357
RightToeBase -7.184714 -0.000000 0.000000
676
root -2.638164 31.679740 -4.199358 5.551309 35.091736 -0.042390
Spine -4.771879 -9.741978 -2.912697
Head 24.399273 5.418519 4.852954
LeftShoulder -17.058919 12.339642 14.401532
LeftArm 24.540015 -31.130793 -75.158629
LeftForeArm -10.760917 -0.000000 69.968174
LeftHand -7.801021 -0.000000 23.738739
LeftHandThumb1 -26.253704 0.000000 33.147579
RightShoulder -13.241676 -4.281694 -11.336864
RightArm 3.391599 -30.642492 89.798418
RightForeArm -24.063076 -0.000000 22.268038
RightHand -14.893950 -0.000000 10.235167
RightHandThumb1 -24.326973 -0.000000 -32.862282
LeftUpLeg -7.500637 -22.302947 -5.080240
LeftLeg 17.430221 -0.000000 -0.000000
LeftFoot -22.596949 17.471584 -12.968768
LeftToeBase 9.488438 -0.000000 -0.000000
RightUpLeg -26.419849 10.067752 -0.859723
RightLeg 6.585569 -0.000000 -0.000000
RightFoot -17.758600 -11.983206 2.373882
RightToeBase -7.051175 -0.000000 0.000000
